HIERARCHY
ROOT Model_Hips
{
	OFFSET 0.000000 96.915077 0.000000
	CHANNELS 6 Xposition Yposition Zposition Xrotation Yrotation Zrotation
	JOINT Model_Spine
	{
		OFFSET 0.000000 11.137703 -1.289900
		CHANNELS 3 Xrotation Yrotation Zrotation
		JOINT Model_Spine1
		{
			OFFSET 0.000000 12.993942 -1.504922
			CHANNELS 3 Xrotation Yrotation Zrotation
			JOINT Model_Spine2
			{
				OFFSET 0.000000 14.850220 -1.719911
				CHANNELS 3 Xrotation Yrotation Zrotation
				JOINT Model_Neck
				{
					OFFSET 0.000000 16.706543 -1.934903
					CHANNELS 3 Xrotation Yrotation Zrotation
					JOINT Model_Head
					{
						OFFSET 0.000000 10.471298 2.002100
						CHANNELS 3 Xrotation Yrotation Zrotation
						JOINT Model_HeadTop_End
						{
							OFFSET 0.000000 20.842606 3.985100
							CHANNELS 3 Xrotation Yrotation Zrotation
							End Site
							{
								OFFSET 0.000000 21.220154 0.000000
							}
						}
					}
				}
				JOINT Model_LeftShoulder
				{
					OFFSET 7.008500 14.768600 -1.919946
					CHANNELS 3 Xrotation Yrotation Zrotation
					JOINT Model_LeftArm
					{
						OFFSET 14.126271 -3.718048 0.029937
						CHANNELS 3 Xrotation Yrotation Zrotation
						JOINT Model_LeftForeArm
						{
							OFFSET 28.282801 0.000000 0.000000
							CHANNELS 3 Xrotation Yrotation Zrotation
							JOINT Model_LeftHand
							{
								OFFSET 26.204689 0.000000 0.000000
								CHANNELS 3 Xrotation Yrotation Zrotation
								End Site
								{
									OFFSET 26.204704 0.000000 0.000000
								}
							}
						}
					}
				}
				JOINT Model_RightShoulder
				{
					OFFSET -7.008500 14.768555 -1.949840
					CHANNELS 3 Xrotation Yrotation Zrotation
					JOINT Model_RightArm
					{
						OFFSET -14.126281 -3.718018 -0.029932
						CHANNELS 3 Xrotation Yrotation Zrotation
						JOINT Model_RightForeArm
						{
							OFFSET -28.283798 0.000000 -0.000001
							CHANNELS 3 Xrotation Yrotation Zrotation
							JOINT Model_RightHand
							{
								OFFSET -26.204193 0.000000 -0.000001
								CHANNELS 3 Xrotation Yrotation Zrotation
								End Site
								{
									OFFSET -26.204208 0.000000 -0.000001
								}
							}
						}
					}
				}
			}
		}
	}
	JOINT Model_LeftUpLeg
	{
		OFFSET 8.327700 -6.193199 -0.402800
		CHANNELS 3 Xrotation Yrotation Zrotation
		JOINT Model_LeftLeg
		{
			OFFSET 0.735802 -42.108742 -0.610721
			CHANNELS 3 Xrotation Yrotation Zrotation
			JOINT Model_LeftFoot
			{
				OFFSET -0.735806 -36.833748 -0.172876
				CHANNELS 3 Xrotation Yrotation Zrotation
				JOINT Model_LeftToeBase
				{
					OFFSET -0.565857 -11.977769 16.297714
					CHANNELS 3 Xrotation Yrotation Zrotation
					JOINT Model_LeftToe_End
					{
						OFFSET -0.111712 -0.312793 7.857784
						CHANNELS 3 Xrotation Yrotation Zrotation
						End Site
						{
							OFFSET -0.111712 -0.312793 7.857784
						}
					}
				}
			}
		}
	}
	JOINT Model_RightUpLeg
	{
		OFFSET -8.327700 -6.193199 -0.516500
		CHANNELS 3 Xrotation Yrotation Zrotation
		JOINT Model_RightLeg
		{
			OFFSET -0.735785 -42.108738 -0.434061
			CHANNELS 3 Xrotation Yrotation Zrotation
			JOINT Model_RightFoot
			{
				OFFSET 0.735776 -36.833748 -0.021630
				CHANNELS 3 Xrotation Yrotation Zrotation
				JOINT Model_RightToeBase
				{
					OFFSET 0.565817 -11.977745 15.903093
					CHANNELS 3 Xrotation Yrotation Zrotation
					JOINT Model_RightToe_End
					{
						OFFSET 0.111702 -0.312791 7.811342
						CHANNELS 3 Xrotation Yrotation Zrotation
						End Site
						{
							OFFSET 0.111702 -0.312791 7.811342
						}
					}
				}
			}
		}
	}
}
MOTION
Frames: 11
Frame Time: 0.016667
0.701142 93.905014 2.680985 7.468126 -1.565565 -2.457001 1.887908 1.003971 -0.438993 3.762581 1.875194 -0.245927 3.762583 1.875192 -0.245926 3.635997 0.534801 -2.084378 3.635994 0.534802 -2.084372 0.000001 0.000000 0.000000 -1.417183 -3.693825 -16.071546 8.178314 -23.645601 -52.336188 91.241758 -43.663374 102.875818 -0.000000 -0.000001 -0.000001 -2.925384 6.787126 9.283293 21.833682 13.016724 62.176271 82.091456 68.286046 -94.999093 -0.000005 -0.000001 0.000000 -4.171629 1.339673 -11.791474 31.655543 5.756572 8.310010 -17.337964 -0.805083 5.379327 -25.630640 6.651843 -1.299512 -0.000001 -0.000000 -0.000000 -22.449391 -3.861847 -9.022298 77.900090 8.406229 -1.788352 -7.170865 -1.125112 11.220628 2.993812 -15.752313 16.665079 -0.000003 0.000000 -0.000001 
0.515079 95.327965 5.060261 8.093771 -1.220744 -3.135969 1.778558 0.594814 -0.388077 3.548409 1.098167 -0.205818 3.548403 1.098166 -0.205816 3.732581 0.652501 -2.131171 3.732580 0.652502 -2.131169 -0.000001 0.000000 0.000000 -1.493408 -4.652704 -16.186309 7.072406 -26.097185 -52.411576 92.024068 -43.553897 104.344233 0.000004 0.000001 0.000001 -2.779083 6.746659 8.350610 24.254147 13.602522 61.036353 85.526160 67.863578 -99.599792 0.000005 0.000001 -0.000000 -1.442702 2.557082 -9.313882 26.545067 2.658572 6.738705 -11.919151 -0.594234 5.847184 -22.379712 5.106595 -0.850476 -0.000000 -0.000000 -0.000000 -23.612220 -3.959083 -7.601091 72.065825 7.438254 -1.428566 -9.134629 -1.180007 9.804276 3.963148 -14.266909 15.707120 0.000002 0.000000 0.000001 
0.295026 96.715797 7.436621 8.694759 -0.974498 -3.847750 1.701092 0.281723 -0.334583 3.397113 0.509816 -0.195304 3.397118 0.509816 -0.195307 3.646793 0.757850 -2.145159 3.646793 0.757850 -2.145156 0.000000 0.000000 -0.000000 -1.580342 -5.598849 -16.423663 6.224362 -28.456551 -52.086917 92.396217 -42.872056 105.365339 -0.000005 -0.000002 -0.000001 -2.675186 6.718522 7.683952 26.231401 13.960908 59.959232 88.723625 67.801246 -103.742801 0.000003 0.000000 0.000001 1.115725 4.127661 -7.397495 21.292386 -0.448064 5.989132 -5.584306 -0.311022 6.362626 -25.475818 3.266959 0.027303 0.000000 0.000000 -0.000000 -24.217932 -3.986656 -6.013300 64.971314 6.870936 -1.166383 -10.466018 -1.235704 8.957584 4.482928 -13.400749 15.220100 -0.000005 0.000003 -0.000001 
0.045075 97.861275 9.730547 9.392358 -0.857443 -4.561788 1.647925 0.020210 -0.275985 3.293361 0.018234 -0.200005 3.293368 0.018234 -0.200007 3.200731 0.886355 -2.098197 3.200706 0.886356 -2.098189 -0.000000 -0.000000 0.000000 -1.650374 -6.429085 -16.522567 5.701796 -30.610695 -51.605617 92.781618 -42.354792 106.541928 0.000002 -0.000000 -0.000001 -2.611302 6.697657 7.274867 27.702554 14.139874 58.958084 92.039128 68.036354 -107.829351 -0.000003 -0.000000 -0.000001 3.310135 5.556338 -5.748541 16.314093 -3.222699 5.339155 0.765710 0.027187 6.480584 -29.351030 1.366600 0.239420 -0.000000 0.000000 -0.000000 -24.662497 -3.909776 -4.336778 57.046058 6.208805 -1.043122 -10.632035 -1.297691 8.708512 3.929112 -12.770410 14.550617 0.000001 -0.000002 -0.000000 
-0.198730 98.725296 11.985423 10.270945 -0.859327 -5.204274 1.580657 -0.242013 -0.218481 3.160313 -0.485913 -0.201685 3.160316 -0.485914 -0.201689 2.445187 1.056113 -2.035692 2.445218 1.056111 -2.035701 0.000001 0.000000 -0.000000 -1.681937 -7.040758 -16.359090 5.457151 -32.423912 -51.171794 93.582956 -42.604606 108.286488 0.000001 0.000001 -0.000001 -2.581425 6.697820 7.081671 28.655990 14.206593 58.005668 95.350896 68.303469 -111.771558 -0.000001 -0.000001 0.000000 5.522202 6.435796 -4.608243 10.923901 -4.946506 5.135501 7.267206 0.358774 5.686039 -33.178699 -0.355536 0.629129 -0.000000 0.000000 -0.000000 -25.090066 -3.790311 -2.769242 48.417579 5.469605 -0.999189 -9.278592 -1.276691 8.697579 1.583872 -12.315498 12.563351 0.000004 0.000000 -0.000001 
-0.396167 99.385925 14.273660 11.281284 -0.891795 -5.731904 1.485283 -0.535292 -0.155947 2.970152 -1.063937 -0.179173 2.970151 -1.063937 -0.179172 1.825367 1.267068 -2.034276 1.825361 1.267068 -2.034275 0.000001 -0.000000 0.000000 -1.679009 -7.426108 -16.022483 5.324083 -33.779138 -50.882457 94.979306 -43.680829 110.596295 0.000002 -0.000001 -0.000001 -2.573181 6.729049 7.027171 29.172872 14.183247 57.078887 98.312664 68.302957 -115.261314 0.000004 0.000001 -0.000001 5.465408 6.674895 -3.496938 9.866324 -4.203873 5.558894 12.261668 0.322424 2.326662 -36.817930 -2.218841 2.167505 -0.000000 0.000000 -0.000000 -25.267272 -3.771842 -1.520490 38.928564 5.082169 -0.860019 -6.582866 -1.100116 8.601955 -1.467821 -11.906344 10.187933 0.000001 -0.000001 0.000001 
-0.539235 99.829575 16.632402 12.232028 -0.844701 -6.158248 1.380084 -0.848919 -0.081859 2.759855 -1.692406 -0.114249 2.759849 -1.692404 -0.114246 1.220733 1.482948 -2.150467 1.220722 1.482948 -2.150467 -0.000001 0.000000 0.000000 -1.670615 -7.676540 -15.745475 5.129977 -34.633089 -50.720196 96.776629 -45.074286 113.070346 -0.000001 0.000000 -0.000002 -2.570093 6.798517 7.001357 29.415579 14.070819 56.182185 100.658861 67.881214 -118.088739 0.000005 0.000001 0.000002 4.830866 6.320691 -2.430616 9.999872 -1.240431 6.472601 17.740728 -0.244419 -2.521817 -41.869282 -3.877433 3.625730 0.000000 0.000000 -0.000000 -24.889361 -3.978198 -0.688836 28.716844 5.415866 -0.443097 -3.231513 -0.800776 8.444894 -2.471528 -11.299259 10.271414 0.000001 -0.000001 0.000001 
-0.641111 100.005653 19.068689 12.898157 -0.690487 -6.536028 1.296590 -1.130235 0.012379 2.592845 -2.261973 -0.008589 2.592848 -2.261972 -0.008590 0.738073 1.671818 -2.395282 0.738068 1.671818 -2.395276 -0.000001 -0.000000 0.000000 -1.690261 -7.916276 -15.780416 4.814166 -35.045448 -50.591088 98.477770 -46.128878 115.146621 -0.000000 0.000001 -0.000000 -2.553068 6.917478 6.884987 29.558330 13.887631 55.331110 102.404220 67.129660 -120.316350 0.000005 0.000001 -0.000002 3.568990 5.673293 -1.925212 13.731236 2.294784 7.629176 18.760136 -0.283121 -3.242959 -40.092186 -1.699912 1.600333 -0.000001 -0.000000 -0.000000 -23.711707 -4.429508 -0.156512 18.084558 6.419297 0.245235 0.279138 -0.426608 8.546904 -2.090538 -10.539592 11.320735 -0.000000 0.000000 0.000001 
-0.719715 99.905602 21.578796 13.140471 -0.514614 -6.872582 1.256908 -1.310392 0.097598 2.513756 -2.637253 0.104193 2.513756 -2.637253 0.104194 0.461343 1.810555 -2.715976 0.461341 1.810554 -2.715963 -0.000000 0.000000 -0.000000 -1.759364 -8.221379 -16.260167 4.436913 -35.147491 -50.420190 99.665765 -46.514804 116.484437 0.000001 -0.000002 -0.000002 -2.514855 7.099965 6.619042 29.676462 13.681868 54.529211 103.764603 66.344667 -122.143289 0.000003 0.000001 -0.000001 1.922574 4.874866 -1.593065 19.740336 6.093948 8.900330 17.955580 -0.183577 -3.266509 -34.121200 1.535900 -2.264495 0.000001 -0.000001 -0.000000 -22.030765 -4.994626 0.207438 8.241141 7.739552 1.105414 3.606970 0.009544 9.021711 -1.921169 -9.717899 11.025651 0.000000 0.000000 0.000003 
-0.784876 99.571617 24.150570 12.931118 -0.417448 -7.134960 1.267825 -1.361335 0.140601 2.536050 -2.745370 0.172040 2.536044 -2.745369 0.172041 0.352458 1.888355 -3.016321 0.352440 1.888354 -3.016312 -0.000001 0.000000 0.000000 -1.874849 -8.577445 -17.128094 4.100031 -35.058422 -50.227773 100.338320 -46.390942 117.185282 -0.000001 0.000001 0.000001 -2.456425 7.358649 6.250942 29.663860 13.524190 53.777874 104.861360 65.869532 -123.581782 0.000002 -0.000000 -0.000001 1.075564 4.090315 -1.650598 25.389043 9.248449 10.444006 16.856183 -0.083156 -3.102711 -23.695569 3.319539 -7.112657 0.000001 -0.000000 -0.000000 -23.058297 -5.545070 0.233116 6.407344 9.538033 1.912149 3.631455 0.069252 9.117501 -1.260170 -8.533261 10.551537 0.000000 0.000000 -0.000002 
-0.834008 99.061005 26.752750 12.302924 -0.432947 -7.342002 1.335807 -1.299640 0.159631 2.671304 -2.620432 0.167650 2.671308 -2.620432 0.167650 0.476093 1.921792 -3.209838 0.476107 1.921794 -3.209846 0.000001 0.000000 -0.000000 -2.012586 -8.889312 -18.190757 3.878122 -34.817746 -50.112275 100.794816 -46.212800 117.588277 0.000000 0.000000 -0.000000 -2.401826 7.700164 5.904274 29.269679 13.500853 53.102190 105.501370 65.949062 -124.283980 0.000002 -0.000001 0.000002 0.788775 3.295246 -1.732935 30.990286 11.382567 11.500422 15.665228 0.021253 -2.577602 -10.807032 1.935827 -8.069504 0.000000 -0.000001 0.000000 -23.315524 -5.940491 0.330693 5.525551 10.985459 2.470195 4.409708 0.248859 8.800411 -0.539258 -7.058621 9.774866 -0.000000 -0.000000 0.000002 
